<?xml version="1.0" encoding="utf-8"?>
<!-- Generator: Adobe Illustrator 15.0.0, SVG Export Plug-In  -->
<!DOCTYPE svg PUBLIC "-//W3C//DTD SVG 1.1//EN" "http://www.w3.org/Graphics/SVG/1.1/DTD/svg11.dtd" [
	<!ENTITY ns_flows "http://ns.adobe.com/Flows/1.0/">
]>
<svg version="1.1"
	 xmlns="http://www.w3.org/2000/svg" xmlns:xlink="http://www.w3.org/1999/xlink" xmlns:a="http://ns.adobe.com/AdobeSVGViewerExtensions/3.0/"
	 x="0px" y="0px" width="165px" height="165px" viewBox="-10.172 -1.125 165 165"
	 overflow="visible" enable-background="new -10.172 -1.125 165 165" xml:space="preserve">
<defs>
</defs>
<ellipse fill="#FFFFFF" cx="72.453" cy="54.848" rx="25.625" ry="36.973"/>
<path fill="#FFFFFF" stroke="#E93854" stroke-width="3" stroke-miterlimit="10" d="M132.056,112.293
	c13.914-26.949,15.042-56.146,5.188-77.183c-22.856,4.149-46.008,21.977-59.919,48.925c-13.914,26.949-15.042,56.146-5.188,77.183
	C94.993,157.069,118.145,139.242,132.056,112.293z"/>
<path fill="#FFFFFF" stroke="#E93854" stroke-width="3" stroke-miterlimit="10" d="M13.165,111.95
	C-0.749,85-1.877,55.803,7.977,34.767c22.856,4.149,46.008,21.977,59.919,48.925c13.913,26.949,15.042,56.146,5.188,77.183
	C50.228,156.725,27.076,138.898,13.165,111.95z"/>
<path fill="#FFFFFF" stroke="#E93854" stroke-width="3" stroke-miterlimit="10" d="M72.375,19.953
	c11.081,8.532,19.977,21.522,25.307,37.125c2.032-1.957,4.119-3.804,6.257-5.523c-5.655-21.069-17.037-38.667-31.729-49.68
	C57.717,12.737,46.45,30.008,40.717,50.695c2.247,1.774,4.439,3.688,6.573,5.722C52.645,41.106,61.45,28.365,72.375,19.953z"/>
</svg>
